<?xml version="1.0" standalone="no"?>
<!DOCTYPE svg PUBLIC "-//W3C//DTD SVG 20010904//EN"
 "http://www.w3.org/TR/2001/REC-SVG-20010904/DTD/svg10.dtd">
<svg version="1.0" xmlns="http://www.w3.org/2000/svg"
 width="101.000000pt" height="101.000000pt" viewBox="0 0 101.000000 101.000000"
 preserveAspectRatio="xMidYMid meet">
<metadata>
Created by potrace 1.11, written by Peter Selinger 2001-2013
</metadata>
<g transform="translate(0.000000,101.000000) scale(0.100000,-0.100000)"
fill="#000000" stroke="none">
<path d="M98 653 c-2 -126 -1 -243 2 -262 5 -33 7 -31 83 90 l77 124 0 137 0
138 -80 0 -79 0 -3 -227z"/>
<path d="M374 738 c-14 -21 -97 -157 -186 -301 -89 -144 -168 -272 -176 -284
l-14 -23 105 0 105 0 33 53 c18 28 47 75 64 102 76 121 285 464 290 477 4 10
-16 13 -96 14 l-101 1 -24 -39z"/>
<path d="M611 728 c-18 -29 -36 -60 -41 -68 -57 -87 -209 -345 -206 -348 6 -6
196 -6 202 0 4 4 127 203 172 277 6 11 15 3 35 -32 16 -26 31 -47 35 -48 10
-1 153 -1 179 0 20 1 14 14 -58 135 l-80 134 -104 1 -103 2 -31 -53z"/>
</g>
</svg>
