<svg version="1.0" xmlns="http://www.w3.org/2000/svg" width="134.667" height="134.667" viewBox="0 0 101 101"><path d="M9.8 35.7c-.2 12.6-.1 24.3.2 26.2.5 3.3.7 3.1 8.3-9L26 40.5V13H10.1l-.3 22.7zm27.6-8.5c-1.4 2.1-9.7 15.7-18.6 30.1C9.9 71.7 2 84.5 1.2 85.7L-.2 88h21l3.3-5.3c1.8-2.8 4.7-7.5 6.4-10.2 7.6-12.1 28.5-46.4 29-47.7.4-1-1.6-1.3-9.6-1.4l-10.1-.1-2.4 3.9zm23.7 1c-1.8 2.9-3.6 6-4.1 6.8-5.7 8.7-20.9 34.5-20.6 34.8.6.6 19.6.6 20.2 0 .4-.4 12.7-20.3 17.2-27.7.6-1.1 1.5-.3 3.5 3.2 1.6 2.6 3.1 4.7 3.5 4.8 1 .1 15.3.1 17.9 0 2-.1 1.4-1.4-5.8-13.5l-8-13.4-10.4-.1-10.3-.2-3.1 5.3z"/></svg>